REM DIRINDEX 1\2,1\3,1\4,1\5
REM DIRNAME cjc046,folder01,folder02,folder03,folder04
TITLE ""
FILE "124.mp3" MP3
  TRACK 01 AUDIO
    TITLE "0:"
    INDEX 01 00:00:00
  TRACK 02 AUDIO
    TITLE "2:cjc046_3075"
    INDEX 01 00:00:13
  TRACK 03 AUDIO
    TITLE "0:"
    INDEX 01 00:01:19
  TRACK 04 AUDIO
    TITLE "3:cjc046_3076"
    INDEX 01 00:01:40
  TRACK 05 AUDIO
    TITLE "0:"
    INDEX 01 00:02:63
  TRACK 06 AUDIO
    TITLE "4:cjc046_3077"
    INDEX 01 00:03:00
  TRACK 07 AUDIO
    TITLE "0:"
    INDEX 01 00:04:07
  TRACK 08 AUDIO
    TITLE "2:cjc046_3078"
    INDEX 01 00:05:18
  TRACK 09 AUDIO
    TITLE "0:"
    INDEX 01 00:06:22
  TRACK 10 AUDIO
    TITLE "3:cjc046_3079"
    INDEX 01 00:06:41
  TRACK 11 AUDIO
    TITLE "0:"
    INDEX 01 00:07:33
  TRACK 12 AUDIO
    TITLE "4:cjc046_3080"
    INDEX 01 00:07:51
  TRACK 13 AUDIO
    TITLE "0:"
    INDEX 01 00:08:56
  TRACK 14 AUDIO
    TITLE "2:cjc046_3081"
    INDEX 01 00:09:57
  TRACK 15 AUDIO
    TITLE "0:"
    INDEX 01 00:10:66
  TRACK 16 AUDIO
    TITLE "3:cjc046_3082"
    INDEX 01 00:11:07
  TRACK 17 AUDIO
    TITLE "0:"
    INDEX 01 00:12:12
  TRACK 18 AUDIO
    TITLE "4:cjc046_3083"
    INDEX 01 00:12:26
  TRACK 19 AUDIO
    TITLE "0:"
    INDEX 01 00:13:33
  TRACK 20 AUDIO
    TITLE "2:cjc046_3084"
    INDEX 01 00:14:43
  TRACK 21 AUDIO
    TITLE "0:"
    INDEX 01 00:15:44
  TRACK 22 AUDIO
    TITLE "3:cjc046_3085"
    INDEX 01 00:15:64
  TRACK 23 AUDIO
    TITLE "0:"
    INDEX 01 00:17:21
  TRACK 24 AUDIO
    TITLE "4:cjc046_3086"
    INDEX 01 00:17:31
  TRACK 25 AUDIO
    TITLE "0:"
    INDEX 01 00:18:33
  TRACK 26 AUDIO
    TITLE "2:cjc046_3087"
    INDEX 01 00:19:42
  TRACK 27 AUDIO
    TITLE "0:"
    INDEX 01 00:20:47
  TRACK 28 AUDIO
    TITLE "3:cjc046_3088"
    INDEX 01 00:20:67
  TRACK 29 AUDIO
    TITLE "0:"
    INDEX 01 00:21:74
  TRACK 30 AUDIO
    TITLE "4:cjc046_3089"
    INDEX 01 00:22:15
  TRACK 31 AUDIO
    TITLE "0:"
    INDEX 01 00:23:20
  TRACK 32 AUDIO
    TITLE "2:cjc046_3090"
    INDEX 01 00:24:29
  TRACK 33 AUDIO
    TITLE "0:"
    INDEX 01 00:25:37
  TRACK 34 AUDIO
    TITLE "3:cjc046_3091"
    INDEX 01 00:25:56
  TRACK 35 AUDIO
    TITLE "0:"
    INDEX 01 00:26:58
  TRACK 36 AUDIO
    TITLE "4:cjc046_3092"
    INDEX 01 00:27:02
  TRACK 37 AUDIO
    TITLE "0:"
    INDEX 01 00:28:12
  TRACK 38 AUDIO
    TITLE "2:cjc046_3093"
    INDEX 01 00:29:17
  TRACK 39 AUDIO
    TITLE "0:"
    INDEX 01 00:30:24
  TRACK 40 AUDIO
    TITLE "3:cjc046_3094"
    INDEX 01 00:30:44
  TRACK 41 AUDIO
    TITLE "0:"
    INDEX 01 00:31:59
  TRACK 42 AUDIO
    TITLE "4:cjc046_3095"
    INDEX 01 00:32:01
  TRACK 43 AUDIO
    TITLE "0:"
    INDEX 01 00:33:09
  TRACK 44 AUDIO
    TITLE "2:cjc046_3096"
    INDEX 01 00:34:16
  TRACK 45 AUDIO
    TITLE "0:"
    INDEX 01 00:35:15
  TRACK 46 AUDIO
    TITLE "3:cjc046_3097"
    INDEX 01 00:35:35
  TRACK 47 AUDIO
    TITLE "0:"
    INDEX 01 00:37:01
  TRACK 48 AUDIO
    TITLE "4:cjc046_3098"
    INDEX 01 00:37:18
  TRACK 49 AUDIO
    TITLE "0:"
    INDEX 01 00:38:18
  TRACK 50 AUDIO
    TITLE "2:cjc046_3099"
    INDEX 01 00:39:27
  TRACK 51 AUDIO
    TITLE "0:"
    INDEX 01 00:40:26
  TRACK 52 AUDIO
    TITLE "3:cjc046_3100"
    INDEX 01 00:40:46
  TRACK 53 AUDIO
    TITLE "0:"
    INDEX 01 00:42:49
  TRACK 54 AUDIO
    TITLE "4:cjc046_3101"
    INDEX 01 00:42:66
  TRACK 55 AUDIO
    TITLE "0:"
    INDEX 01 00:43:68
  TRACK 56 AUDIO
    TITLE "2:cjc046_3102"
    INDEX 01 00:45:00
  TRACK 57 AUDIO
    TITLE "0:"
    INDEX 01 00:46:13
  TRACK 58 AUDIO
    TITLE "3:cjc046_3103"
    INDEX 01 00:46:33
  TRACK 59 AUDIO
    TITLE "0:"
    INDEX 01 00:47:36
  TRACK 60 AUDIO
    TITLE "4:cjc046_3104"
    INDEX 01 00:47:44
  TRACK 61 AUDIO
    TITLE "0:"
    INDEX 01 00:48:55
  TRACK 62 AUDIO
    TITLE "2:cjc046_3105"
    INDEX 01 00:49:65
  TRACK 63 AUDIO
    TITLE "0:"
    INDEX 01 00:51:07
  TRACK 64 AUDIO
    TITLE "3:cjc046_3106"
    INDEX 01 00:51:26
  TRACK 65 AUDIO
    TITLE "0:"
    INDEX 01 00:52:30
  TRACK 66 AUDIO
    TITLE "4:cjc046_3107"
    INDEX 01 00:52:49
  TRACK 67 AUDIO
    TITLE "0:"
    INDEX 01 00:53:68
  TRACK 68 AUDIO
    TITLE "2:cjc046_3108"
    INDEX 01 00:55:03
  TRACK 69 AUDIO
    TITLE "0:"
    INDEX 01 00:56:12
  TRACK 70 AUDIO
    TITLE "3:cjc046_3109"
    INDEX 01 00:56:35
  TRACK 71 AUDIO
    TITLE "0:"
    INDEX 01 00:57:56
  TRACK 72 AUDIO
    TITLE "4:cjc046_3110"
    INDEX 01 00:57:68
  TRACK 73 AUDIO
    TITLE "0:"
    INDEX 01 00:59:04
  TRACK 74 AUDIO
    TITLE "2:cjc046_3111"
    INDEX 01 01:00:12
  TRACK 75 AUDIO
    TITLE "0:"
    INDEX 01 01:01:33
  TRACK 76 AUDIO
    TITLE "3:cjc046_3112"
    INDEX 01 01:01:52
  TRACK 77 AUDIO
    TITLE "0:"
    INDEX 01 01:02:69
  TRACK 78 AUDIO
    TITLE "4:cjc046_3113"
    INDEX 01 01:03:08
  TRACK 79 AUDIO
    TITLE "0:"
    INDEX 01 01:04:27
  TRACK 80 AUDIO
    TITLE "2:cjc046_3114"
    INDEX 01 01:05:38
  TRACK 81 AUDIO
    TITLE "0:"
    INDEX 01 01:06:51
  TRACK 82 AUDIO
    TITLE "3:cjc046_3115"
    INDEX 01 01:06:73
  TRACK 83 AUDIO
    TITLE "0:"
    INDEX 01 01:08:58
  TRACK 84 AUDIO
    TITLE "4:cjc046_3116"
    INDEX 01 01:08:70
  TRACK 85 AUDIO
    TITLE "0:"
    INDEX 01 01:10:10
